{
  "accessors": [
    {
      "bufferView": 2,
      "componentType": 5126,
      "count": 9764,
      "max": [
        41.677890777587891,
        55.160030364990234,
        16.039093017578125
      ],
      "min": [
        -41.677890777587891,
        -52.418811798095703,
        -11.441104888916016
      ],
      "type": "VEC3"
    },
    {
      "bufferView": 2,
      "byteOffset": 117168,
      "componentType": 5126,
      "count": 9764,
      "max": [
        1,
        1,
        1
      ],
      "min": [
        -1,
        -1,
        -1
      ],
      "type": "VEC3"
    },
    {
      "bufferView": 3,
      "componentType": 5126,
      "count": 9764,
      "max": [
        1,
        1,
        1,
        1
      ],
      "min": [
        -1,
        -1,
        -1,
        -1
      ],
      "type": "VEC4"
    },
    {
      "bufferView": 1,
      "componentType": 5126,
      "count": 9764,
      "max": [
        0.99716317653656006,
        0.9793965220451355
      ],
      "min": [
        0.0093891080468893051,
        0.0070166885852813721
      ],
      "type": "VEC2"
    },
    {
      "bufferView": 0,
      "componentType": 5125,
      "count": 34986,
      "max": [
        9763
      ],
      "min": [
        0
      ],
      "type": "SCALAR"
    },
    {
      "bufferView": 2,
      "byteOffset": 234336,
      "componentType": 5126,
      "count": 3863,
      "max": [
        34.811267852783203,
        54.701129913330078,
        7.4796347618103027
      ],
      "min": [
        -34.811267852783203,
        30.609813690185547,
        -15.711812019348145
      ],
      "type": "VEC3"
    },
    {
      "bufferView": 2,
      "byteOffset": 280692,
      "componentType": 5126,
      "count": 3863,
      "max": [
        0.99992650747299194,
        0.99971538782119751,
        1
      ],
      "min": [
        -0.99992650747299194,
        -0.99827182292938232,
        -0.99865192174911499
      ],
      "type": "VEC3"
    },
    {
      "bufferView": 3,
      "byteOffset": 156224,
      "componentType": 5126,
      "count": 3863,
      "max": [
        0.99999940395355225,
        1,
        0.99898862838745117,
        1
      ],
      "min": [
        -0.99999994039535522,
        -1,
        -0.99992144107818604,
        -1
      ],
      "type": "VEC4"
    },
    {
      "bufferView": 1,
      "byteOffset": 78112,
      "componentType": 5126,
      "count": 3863,
      "max": [
        0.98485338687896729,
        0.99146699905395508
      ],
      "min": [
        0.095690906047821045,
        0.0073837810195982456
      ],
      "type": "VEC2"
    },
    {
      "bufferView": 0,
      "byteOffset": 139944,
      "componentType": 5125,
      "count": 20466,
      "max": [
        3862
      ],
      "min": [
        0
      ],
      "type": "SCALAR"
    }
  ],
  "asset": {
    "extras": {
      "author": "EdgeFlow Studio (https://sketchfab.com/edgeflowstudio)",
      "license": "CC-BY-4.0 (http://creativecommons.org/licenses/by/4.0/)",
      "source": "https://sketchfab.com/models/778725c25ea94055ac330436be76c8df",
      "title": "Free Hololens Model + Textures"
    },
    "generator": "Sketchfab-3.19.5",
    "version": "2.0"
  },
  "bufferViews": [
    {
      "buffer": 0,
      "byteLength": 221808,
      "byteOffset": 0,
      "name": "floatBufferViews",
      "target": 34963
    },
    {
      "buffer": 0,
      "byteLength": 109016,
      "byteOffset": 221808,
      "byteStride": 8,
      "name": "floatBufferViews",
      "target": 34962
    },
    {
      "buffer": 0,
      "byteLength": 327048,
      "byteOffset": 330824,
      "byteStride": 12,
      "name": "floatBufferViews",
      "target": 34962
    },
    {
      "buffer": 0,
      "byteLength": 218032,
      "byteOffset": 657872,
      "byteStride": 16,
      "name": "floatBufferViews",
      "target": 34962
    }
  ],
  "buffers": [
    {
      "byteLength": 875904,
      "uri": "scene.bin"
    }
  ],
  "images": [
    {
      "uri": "textures/opaque_baseColor.png"
    },
    {
      "uri": "textures/opaque_normal.png"
    },
    {
      "uri": "textures/opaque_metallicRoughness.png"
    },
    {
      "uri": "textures/transparent_baseColor.png"
    },
    {
      "uri": "textures/transparent_metallicRoughness.png"
    },
    {
      "uri": "textures/transparent_normal.png"
    }
  ],
  "materials": [
    {
      "doubleSided": true,
      "name": "opaque",
      "normalTexture": {
        "index": 1,
        "scale": 1,
        "texCoord": 0
      },
      "occlusionTexture": {
        "index": 2,
        "strength": 1,
        "texCoord": 0
      },
      "pbrMetallicRoughness": {
        "baseColorFactor": [
          0.2029344512,
          0.2029344512,
          0.2029344512,
          1
        ],
        "baseColorTexture": {
          "index": 0,
          "texCoord": 0
        },
        "metallicFactor": 1,
        "metallicRoughnessTexture": {
          "index": 2,
          "texCoord": 0
        },
        "roughnessFactor": 0.80659298779999999
      }
    },
    {
      "alphaMode": "BLEND",
      "doubleSided": true,
      "name": "transparent",
      "normalTexture": {
        "index": 5,
        "scale": 1,
        "texCoord": 0
      },
      "pbrMetallicRoughness": {
        "baseColorFactor": [
          1,
          1,
          1,
          0.28752616069999998
        ],
        "baseColorTexture": {
          "index": 3,
          "texCoord": 0
        },
        "metallicFactor": 1,
        "metallicRoughnessTexture": {
          "index": 4,
          "texCoord": 0
        },
        "roughnessFactor": 0.50492666949999998
      }
    }
  ],
  "meshes": [
    {
      "name": "HololensOpaque_opaque_0",
      "primitives": [
        {
          "attributes": {
            "NORMAL": 1,
            "POSITION": 0,
            "TANGENT": 2,
            "TEXCOORD_0": 3
          },
          "indices": 4,
          "material": 0,
          "mode": 4
        }
      ]
    },
    {
      "name": "HololensTransparent_transparent_0",
      "primitives": [
        {
          "attributes": {
            "NORMAL": 6,
            "POSITION": 5,
            "TANGENT": 7,
            "TEXCOORD_0": 8
          },
          "indices": 9,
          "material": 1,
          "mode": 4
        }
      ]
    }
  ],
  "nodes": [
    {
      "children": [
        1
      ],
      "name": "RootNode (gltf orientation matrix)",
      "rotation": [
        -0.70710678118654746,
        -0,
        -0,
        0.70710678118654757
      ]
    },
    {
      "children": [
        2
      ],
      "matrix": [
        -1,
        0,
        0,
        0,
        0,
        -1,
        0,
        0,
        0,
        0,
        1,
        0,
        6.8664601712953299e-05,
        -15.324305534362793,
        0,
        1
      ],
      "name": "RootNode (model correction matrix)"
    },
    {
      "children": [
        3
      ],
      "matrix": [
        1,
        0,
        0,
        0,
        0,
        0,
        1,
        0,
        0,
        -1,
        0,
        0,
        0,
        0,
        0,
        1
      ],
      "name": "09243f77c4a241e9b05e8217e6d3aeb2.fbx"
    },
    {
      "children": [
        4,
        6
      ],
      "name": "RootNode"
    },
    {
      "children": [
        5
      ],
      "matrix": [
        1,
        0,
        0,
        0,
        0,
        2.2204460492503131e-16,
        -1,
        0,
        0,
        1,
        2.2204460492503131e-16,
        0,
        0,
        -6.322998046875,
        0,
        1
      ],
      "name": "HololensOpaque"
    },
    {
      "mesh": 0,
      "name": "HololensOpaque_opaque_0"
    },
    {
      "children": [
        7
      ],
      "matrix": [
        1,
        0,
        0,
        0,
        0,
        2.2204460492503131e-16,
        -1,
        0,
        0,
        1,
        2.2204460492503131e-16,
        0,
        0,
        -6.322998046875,
        0,
        1
      ],
      "name": "HololensTransparent"
    },
    {
      "mesh": 1,
      "name": "HololensTransparent_transparent_0"
    }
  ],
  "samplers": [
    {
      "magFilter": 9729,
      "minFilter": 9987,
      "wrapS": 10497,
      "wrapT": 10497
    }
  ],
  "scene": 0,
  "scenes": [
    {
      "name": "OSG_Scene",
      "nodes": [
        0
      ]
    }
  ],
  "textures": [
    {
      "sampler": 0,
      "source": 0
    },
    {
      "sampler": 0,
      "source": 1
    },
    {
      "sampler": 0,
      "source": 2
    },
    {
      "sampler": 0,
      "source": 3
    },
    {
      "sampler": 0,
      "source": 4
    },
    {
      "sampler": 0,
      "source": 5
    }
  ]
}

